<mxfile host="Electron" modified="2024-07-06T13:56:37.028Z" agent="Mozilla/5.0 (Windows NT 10.0; Win64; x64) AppleWebKit/537.36 (KHTML, like Gecko) draw.io/22.1.15 Chrome/120.0.6099.109 Electron/28.1.0 Safari/537.36" etag="R7aPEZvBJb1lPojkZVvT" version="22.1.15" type="device">
  <diagram name="Страница — 1" id="DLCPIbchhOFvyW4WexeE">
    <mxGraphModel dx="894" dy="1034" grid="1" gridSize="10" guides="1" tooltips="1" connect="1" arrows="1" fold="1" page="1" pageScale="1" pageWidth="827" pageHeight="1169" math="0" shadow="0">
      <root>
        <mxCell id="0" />
        <mxCell id="1" parent="0" />
        <mxCell id="XdF8I33yM67CE7r5PVnw-1" value="UserService" style="swimlane;childLayout=stackLayout;horizontal=1;startSize=40;horizontalStack=0;rounded=1;fontSize=14;fontStyle=0;strokeWidth=2;resizeParent=0;resizeLast=1;shadow=0;dashed=0;align=center;arcSize=4;whiteSpace=wrap;html=1;fillColor=#008a00;fontColor=#ffffff;strokeColor=#005700;" parent="1" vertex="1">
          <mxGeometry x="30" y="150" width="250" height="120" as="geometry" />
        </mxCell>
        <mxCell id="XdF8I33yM67CE7r5PVnw-2" value="+register(login, password): user_session&lt;br&gt;+auth(login, password): user_session&lt;br&gt;+verify(session): bool" style="align=left;strokeColor=none;fillColor=none;spacingLeft=4;fontSize=12;verticalAlign=top;resizable=0;rotatable=0;part=1;html=1;" parent="XdF8I33yM67CE7r5PVnw-1" vertex="1">
          <mxGeometry y="40" width="250" height="80" as="geometry" />
        </mxCell>
        <mxCell id="XdF8I33yM67CE7r5PVnw-3" value="UserRepository" style="swimlane;childLayout=stackLayout;horizontal=1;startSize=40;horizontalStack=0;rounded=1;fontSize=14;fontStyle=0;strokeWidth=2;resizeParent=0;resizeLast=1;shadow=0;dashed=0;align=center;arcSize=4;whiteSpace=wrap;html=1;fillColor=#6a00ff;fontColor=#ffffff;strokeColor=#3700CC;" parent="1" vertex="1">
          <mxGeometry x="440" y="120" width="250" height="120" as="geometry" />
        </mxCell>
        <mxCell id="XdF8I33yM67CE7r5PVnw-4" value="+add(user_id, UserEntity): None&lt;br&gt;+get(user_id): UserEntity&lt;br&gt;+update(user_id, UserEntity): None&lt;br&gt;+delete(UserEntity): None&lt;br&gt;" style="align=left;strokeColor=none;fillColor=none;spacingLeft=4;fontSize=12;verticalAlign=top;resizable=0;rotatable=0;part=1;html=1;" parent="XdF8I33yM67CE7r5PVnw-3" vertex="1">
          <mxGeometry y="40" width="250" height="80" as="geometry" />
        </mxCell>
        <mxCell id="XdF8I33yM67CE7r5PVnw-5" value="PasswordRepository" style="swimlane;childLayout=stackLayout;horizontal=1;startSize=40;horizontalStack=0;rounded=1;fontSize=14;fontStyle=0;strokeWidth=2;resizeParent=0;resizeLast=1;shadow=0;dashed=0;align=center;arcSize=4;whiteSpace=wrap;html=1;fillColor=#6a00ff;fontColor=#ffffff;strokeColor=#3700CC;" parent="1" vertex="1">
          <mxGeometry x="440" y="270" width="250" height="120" as="geometry" />
        </mxCell>
        <mxCell id="XdF8I33yM67CE7r5PVnw-6" value="+add(user_id, PasswordEntity): None&lt;br&gt;+get(user_id): PasswordEntity&lt;br&gt;+update(user_id, PasswordEntity): None&lt;br&gt;+delete(PasswordEntity): None" style="align=left;strokeColor=none;fillColor=none;spacingLeft=4;fontSize=12;verticalAlign=top;resizable=0;rotatable=0;part=1;html=1;" parent="XdF8I33yM67CE7r5PVnw-5" vertex="1">
          <mxGeometry y="40" width="250" height="80" as="geometry" />
        </mxCell>
        <mxCell id="XdF8I33yM67CE7r5PVnw-7" value="SessionRepository" style="swimlane;childLayout=stackLayout;horizontal=1;startSize=40;horizontalStack=0;rounded=1;fontSize=14;fontStyle=0;strokeWidth=2;resizeParent=0;resizeLast=1;shadow=0;dashed=0;align=center;arcSize=4;whiteSpace=wrap;html=1;fillColor=#6a00ff;fontColor=#ffffff;strokeColor=#3700CC;" parent="1" vertex="1">
          <mxGeometry x="440" y="420" width="250" height="120" as="geometry" />
        </mxCell>
        <mxCell id="XdF8I33yM67CE7r5PVnw-8" value="+add(user_id,&amp;nbsp;SessionEntity): None&lt;br&gt;+get(user_id): list[SessionEntity]&lt;br&gt;+update(user_id, SessionEntity): None&lt;br&gt;+delete(SessionEntity): None" style="align=left;strokeColor=none;fillColor=none;spacingLeft=4;fontSize=12;verticalAlign=top;resizable=0;rotatable=0;part=1;html=1;" parent="XdF8I33yM67CE7r5PVnw-7" vertex="1">
          <mxGeometry y="40" width="250" height="80" as="geometry" />
        </mxCell>
        <mxCell id="PbeC3k4ZuhGFH6CdLOCR-1" value="UserEntity" style="swimlane;childLayout=stackLayout;horizontal=1;startSize=40;horizontalStack=0;rounded=1;fontSize=14;fontStyle=0;strokeWidth=2;resizeParent=0;resizeLast=1;shadow=0;dashed=0;align=center;arcSize=4;whiteSpace=wrap;html=1;fillColor=#e3c800;fontColor=#000000;strokeColor=#B09500;" vertex="1" parent="1">
          <mxGeometry x="840" y="120" width="250" height="120" as="geometry" />
        </mxCell>
        <mxCell id="PbeC3k4ZuhGFH6CdLOCR-2" value="+ user_id: string&lt;br&gt;+ login: string&lt;br&gt;+ creation_date: string" style="align=left;strokeColor=none;fillColor=none;spacingLeft=4;fontSize=12;verticalAlign=top;resizable=0;rotatable=0;part=1;html=1;" vertex="1" parent="PbeC3k4ZuhGFH6CdLOCR-1">
          <mxGeometry y="40" width="250" height="80" as="geometry" />
        </mxCell>
        <mxCell id="PbeC3k4ZuhGFH6CdLOCR-3" value="PasswordEntity" style="swimlane;childLayout=stackLayout;horizontal=1;startSize=40;horizontalStack=0;rounded=1;fontSize=14;fontStyle=0;strokeWidth=2;resizeParent=0;resizeLast=1;shadow=0;dashed=0;align=center;arcSize=4;whiteSpace=wrap;html=1;fillColor=#e3c800;fontColor=#000000;strokeColor=#B09500;" vertex="1" parent="1">
          <mxGeometry x="840" y="270" width="250" height="120" as="geometry" />
        </mxCell>
        <mxCell id="PbeC3k4ZuhGFH6CdLOCR-4" value="+ user_id: string&lt;br&gt;+ hash: string&lt;br&gt;+ salt: string" style="align=left;strokeColor=none;fillColor=none;spacingLeft=4;fontSize=12;verticalAlign=top;resizable=0;rotatable=0;part=1;html=1;" vertex="1" parent="PbeC3k4ZuhGFH6CdLOCR-3">
          <mxGeometry y="40" width="250" height="80" as="geometry" />
        </mxCell>
        <mxCell id="PbeC3k4ZuhGFH6CdLOCR-5" style="edgeStyle=orthogonalEdgeStyle;rounded=0;orthogonalLoop=1;jettySize=auto;html=1;" edge="1" parent="1" source="XdF8I33yM67CE7r5PVnw-6" target="PbeC3k4ZuhGFH6CdLOCR-4">
          <mxGeometry relative="1" as="geometry" />
        </mxCell>
        <mxCell id="PbeC3k4ZuhGFH6CdLOCR-6" style="edgeStyle=orthogonalEdgeStyle;rounded=0;orthogonalLoop=1;jettySize=auto;html=1;" edge="1" parent="1" source="XdF8I33yM67CE7r5PVnw-4" target="PbeC3k4ZuhGFH6CdLOCR-2">
          <mxGeometry relative="1" as="geometry" />
        </mxCell>
        <mxCell id="PbeC3k4ZuhGFH6CdLOCR-7" value="AvatarRepository" style="swimlane;childLayout=stackLayout;horizontal=1;startSize=40;horizontalStack=0;rounded=1;fontSize=14;fontStyle=0;strokeWidth=2;resizeParent=0;resizeLast=1;shadow=0;dashed=0;align=center;arcSize=4;whiteSpace=wrap;html=1;fillColor=#6a00ff;fontColor=#ffffff;strokeColor=#3700CC;" vertex="1" parent="1">
          <mxGeometry x="440" y="570" width="250" height="120" as="geometry" />
        </mxCell>
        <mxCell id="PbeC3k4ZuhGFH6CdLOCR-8" value="+add(user_id,&amp;nbsp;AvatarEntity): None&lt;br&gt;+get(user_id): list[AvatarEntity]&lt;br&gt;+update(user_id,&amp;nbsp;AvatarEntity): None&lt;br&gt;+delete(AvatarEntity): None" style="align=left;strokeColor=none;fillColor=none;spacingLeft=4;fontSize=12;verticalAlign=top;resizable=0;rotatable=0;part=1;html=1;" vertex="1" parent="PbeC3k4ZuhGFH6CdLOCR-7">
          <mxGeometry y="40" width="250" height="80" as="geometry" />
        </mxCell>
        <mxCell id="PbeC3k4ZuhGFH6CdLOCR-9" value="AvatarEntity" style="swimlane;childLayout=stackLayout;horizontal=1;startSize=40;horizontalStack=0;rounded=1;fontSize=14;fontStyle=0;strokeWidth=2;resizeParent=0;resizeLast=1;shadow=0;dashed=0;align=center;arcSize=4;whiteSpace=wrap;html=1;fillColor=#e3c800;fontColor=#000000;strokeColor=#B09500;" vertex="1" parent="1">
          <mxGeometry x="840" y="570" width="250" height="120" as="geometry" />
        </mxCell>
        <mxCell id="PbeC3k4ZuhGFH6CdLOCR-10" value="+ user_id: string&lt;br&gt;+ avatar_url: string&lt;br&gt;+ timestamp: string" style="align=left;strokeColor=none;fillColor=none;spacingLeft=4;fontSize=12;verticalAlign=top;resizable=0;rotatable=0;part=1;html=1;" vertex="1" parent="PbeC3k4ZuhGFH6CdLOCR-9">
          <mxGeometry y="40" width="250" height="80" as="geometry" />
        </mxCell>
        <mxCell id="PbeC3k4ZuhGFH6CdLOCR-11" value="SessionEntity" style="swimlane;childLayout=stackLayout;horizontal=1;startSize=40;horizontalStack=0;rounded=1;fontSize=14;fontStyle=0;strokeWidth=2;resizeParent=0;resizeLast=1;shadow=0;dashed=0;align=center;arcSize=4;whiteSpace=wrap;html=1;fillColor=#e3c800;fontColor=#000000;strokeColor=#B09500;" vertex="1" parent="1">
          <mxGeometry x="840" y="420" width="250" height="120" as="geometry" />
        </mxCell>
        <mxCell id="PbeC3k4ZuhGFH6CdLOCR-12" value="+ user_id: string&lt;br&gt;+ session_id: string&lt;br&gt;+ last_activity: string&lt;br&gt;+ expires: string" style="align=left;strokeColor=none;fillColor=none;spacingLeft=4;fontSize=12;verticalAlign=top;resizable=0;rotatable=0;part=1;html=1;" vertex="1" parent="PbeC3k4ZuhGFH6CdLOCR-11">
          <mxGeometry y="40" width="250" height="80" as="geometry" />
        </mxCell>
        <mxCell id="PbeC3k4ZuhGFH6CdLOCR-14" style="edgeStyle=orthogonalEdgeStyle;rounded=0;orthogonalLoop=1;jettySize=auto;html=1;" edge="1" parent="1" source="XdF8I33yM67CE7r5PVnw-8" target="PbeC3k4ZuhGFH6CdLOCR-12">
          <mxGeometry relative="1" as="geometry" />
        </mxCell>
        <mxCell id="PbeC3k4ZuhGFH6CdLOCR-15" style="edgeStyle=orthogonalEdgeStyle;rounded=0;orthogonalLoop=1;jettySize=auto;html=1;" edge="1" parent="1" source="PbeC3k4ZuhGFH6CdLOCR-8" target="PbeC3k4ZuhGFH6CdLOCR-10">
          <mxGeometry relative="1" as="geometry" />
        </mxCell>
        <mxCell id="PbeC3k4ZuhGFH6CdLOCR-16" style="edgeStyle=orthogonalEdgeStyle;rounded=0;orthogonalLoop=1;jettySize=auto;html=1;" edge="1" parent="1" source="XdF8I33yM67CE7r5PVnw-2" target="XdF8I33yM67CE7r5PVnw-3">
          <mxGeometry relative="1" as="geometry" />
        </mxCell>
        <mxCell id="PbeC3k4ZuhGFH6CdLOCR-17" style="edgeStyle=orthogonalEdgeStyle;rounded=0;orthogonalLoop=1;jettySize=auto;html=1;exitX=1;exitY=0.5;exitDx=0;exitDy=0;" edge="1" parent="1" source="XdF8I33yM67CE7r5PVnw-2" target="XdF8I33yM67CE7r5PVnw-5">
          <mxGeometry relative="1" as="geometry" />
        </mxCell>
        <mxCell id="PbeC3k4ZuhGFH6CdLOCR-18" style="edgeStyle=orthogonalEdgeStyle;rounded=0;orthogonalLoop=1;jettySize=auto;html=1;exitX=1;exitY=0.5;exitDx=0;exitDy=0;" edge="1" parent="1" source="XdF8I33yM67CE7r5PVnw-2" target="XdF8I33yM67CE7r5PVnw-7">
          <mxGeometry relative="1" as="geometry">
            <Array as="points">
              <mxPoint x="360" y="230" />
              <mxPoint x="360" y="480" />
            </Array>
          </mxGeometry>
        </mxCell>
      </root>
    </mxGraphModel>
  </diagram>
</mxfile>
